<!DOCTYPE svg PUBLIC "-//W3C//DTD SVG 20010904//EN" "http://www.w3.org/TR/2001/REC-SVG-20010904/DTD/svg10.dtd">
<svg version="1.0" xmlns="http://www.w3.org/2000/svg" width="1000px" height="974px" viewBox="0 0 10000 9740" preserveAspectRatio="xMidYMid meet">
<g id="layer101" fill="#000000" stroke="none">
 <path d="M0 4870 l0 -4870 5000 0 5000 0 0 4870 0 4870 -5000 0 -5000 0 0 -4870z"/>
 </g>
<g id="layer102" fill="#ffffff" stroke="none">
 <path d="M0 4870 l0 -4870 5000 0 5000 0 0 4870 0 4870 -5000 0 -5000 0 0 -4870z m5026 4283 c-10 -10 -19 5 -10 18 6 11 8 11 12 0 2 -7 1 -15 -2 -18z m336 -403 c3 -10 19 -13 133 -25 130 -14 353 -57 436 -85 48 -17 121 -37 161 -45 68 -14 188 -54 233 -78 11 -6 29 -12 40 -13 23 -3 85 -27 195 -74 41 -17 93 -38 115 -45 22 -7 54 -20 70 -28 17 -9 72 -34 124 -56 52 -23 126 -60 165 -84 39 -24 107 -63 151 -87 44 -23 96 -54 115 -69 19 -14 37 -26 40 -26 10 -1 78 -48 110 -77 10 -9 26 -19 37 -22 10 -3 33 -19 51 -36 18 -16 35 -30 37 -30 2 0 22 -18 44 -40 22 -22 43 -40 47 -40 11 0 154 -150 154 -161 0 -5 5 -9 11 -9 16 0 192 -170 212 -205 4 -8 32 -39 62 -69 30 -30 55 -62 55 -71 0 -14 42 -86 65 -111 5 -6 19 -23 30 -38 11 -16 25 -33 30 -40 6 -6 21 -27 34 -46 14 -19 30 -39 38 -43 7 -4 13 -18 13 -31 0 -13 9 -31 20 -41 11 -10 20 -23 20 -28 0 -19 72 -157 82 -157 5 0 7 -4 3 -9 -3 -5 8 -30 25 -54 16 -25 30 -49 30 -55 0 -6 4 -12 8 -14 9 -3 72 -108 89 -148 16 -36 56 -124 91 -200 16 -36 33 -80 37 -99 4 -18 20 -65 37 -105 16 -39 36 -91 45 -116 8 -25 21 -52 28 -60 7 -8 13 -29 13 -47 0 -17 8 -45 16 -62 9 -16 16 -38 16 -48 0 -10 7 -31 15 -47 8 -15 15 -41 15 -57 0 -16 11 -71 24 -122 13 -50 32 -126 41 -167 9 -41 19 -82 22 -90 3 -8 6 -31 8 -50 2 -19 10 -55 19 -80 9 -27 12 -48 6 -55 -5 -7 -7 -66 -3 -141 7 -145 8 -191 5 -319 -2 -49 -3 -117 -3 -150 -2 -188 -11 -293 -30 -345 -5 -14 -16 -86 -24 -160 -18 -150 -43 -270 -79 -375 -14 -38 -32 -101 -41 -138 -14 -57 -71 -216 -104 -292 -5 -11 -15 -36 -22 -55 -7 -19 -30 -64 -51 -100 -20 -36 -45 -81 -54 -100 -39 -83 -120 -228 -134 -240 -3 -3 -11 -16 -18 -30 -25 -50 -54 -95 -72 -110 -9 -8 -20 -26 -23 -40 -6 -24 -53 -87 -132 -175 -20 -22 -36 -44 -37 -50 -1 -12 -57 -93 -111 -163 -47 -59 -378 -391 -447 -448 -25 -20 -76 -61 -115 -90 -38 -29 -97 -78 -130 -108 -33 -30 -71 -61 -85 -68 -14 -7 -47 -28 -74 -47 -28 -20 -71 -45 -98 -58 -26 -12 -74 -40 -107 -63 -34 -22 -69 -44 -78 -47 -10 -4 -37 -20 -59 -35 -23 -15 -47 -28 -53 -28 -16 0 -108 -47 -115 -59 -4 -5 -20 -12 -36 -16 -17 -4 -30 -11 -30 -17 0 -5 -6 -8 -12 -5 -7 2 -37 -9 -67 -24 -29 -16 -67 -33 -85 -38 -17 -5 -69 -26 -116 -46 -47 -21 -121 -51 -165 -67 -44 -17 -91 -36 -105 -43 -37 -19 -104 -36 -189 -46 -144 -18 -206 -27 -255 -38 -27 -7 -81 -14 -120 -17 -39 -3 -87 -9 -106 -14 -19 -6 -46 -10 -60 -10 -14 0 -38 -7 -54 -15 -16 -8 -34 -14 -40 -13 -6 1 -33 -1 -61 -5 -158 -21 -408 -24 -521 -6 -38 6 -103 12 -144 15 -41 2 -97 8 -125 14 -27 5 -71 14 -98 20 -26 5 -57 15 -70 22 -12 7 -85 29 -162 49 -212 55 -250 67 -315 94 -33 14 -70 25 -82 25 -13 0 -70 21 -128 45 -58 25 -113 45 -123 45 -10 0 -29 7 -42 16 -13 8 -32 14 -42 12 -10 -1 -22 0 -28 3 -5 4 -28 12 -50 19 -22 7 -67 29 -100 49 -33 19 -85 48 -115 63 -30 15 -62 32 -70 37 -8 5 -72 36 -141 69 -69 33 -159 84 -200 113 -41 30 -93 67 -116 83 -24 16 -43 33 -43 39 0 6 -3 8 -6 4 -7 -6 -122 91 -209 175 -27 27 -86 79 -130 115 -111 90 -183 160 -272 264 -41 49 -79 89 -83 89 -4 0 -22 22 -41 50 -19 27 -37 50 -42 50 -4 0 -32 37 -62 82 -54 81 -86 125 -191 263 -28 37 -75 113 -103 169 -76 148 -132 248 -147 264 -8 7 -14 22 -14 33 0 11 -6 30 -14 42 -8 12 -16 34 -18 48 -2 15 -9 33 -15 40 -6 8 -16 32 -23 54 -7 22 -21 56 -30 75 -18 36 -72 217 -90 305 -6 28 -15 68 -20 90 -19 83 -53 292 -56 350 -2 33 -8 87 -13 120 -25 151 -42 410 -27 433 4 7 2 12 -4 12 -9 0 -10 27 -6 98 8 149 25 299 36 344 6 22 13 61 16 86 7 76 19 139 34 182 5 14 11 52 14 85 10 105 24 177 51 269 25 85 33 121 40 176 1 14 4 27 5 30 1 3 2 9 1 13 -1 5 5 31 14 59 8 28 13 54 10 56 -2 3 4 21 14 41 10 20 24 50 31 66 7 17 18 44 26 60 32 73 64 155 64 167 0 14 106 230 143 290 40 67 92 162 91 168 -1 3 7 17 17 32 10 14 19 30 19 35 0 14 148 236 169 253 17 14 164 178 200 225 30 37 137 141 176 171 22 16 87 77 145 135 108 110 219 206 310 269 19 13 40 30 45 36 6 7 37 29 70 49 68 43 208 146 213 158 2 4 20 16 40 26 71 35 197 104 253 137 31 19 74 40 95 48 22 8 69 28 106 45 36 17 71 31 77 31 5 0 52 18 102 40 51 22 98 40 105 40 8 0 30 9 50 21 52 29 120 50 179 56 27 3 62 11 77 19 15 8 35 14 44 14 20 0 80 18 106 31 10 5 24 9 31 9 8 0 28 7 45 15 17 9 84 22 149 30 65 8 143 19 173 25 92 17 305 33 650 49 85 4 158 8 162 9 3 1 8 -3 10 -8z m3635 -6877 c-4 -3 -7 0 -7 7 0 7 3 10 7 7 3 -4 3 -10 0 -14z m700 -300 c-4 -3 -7 0 -7 7 0 7 3 10 7 7 3 -4 3 -10 0 -14z m-8820 -180 c-4 -3 -10 -3 -14 0 -3 4 0 7 7 7 7 0 10 -3 7 -7z"/>
 <path d="M5057 8234 c-1 -1 -58 -4 -127 -7 -69 -3 -150 -12 -181 -20 -31 -8 -78 -14 -105 -13 -75 3 -171 -11 -259 -38 -44 -14 -107 -29 -140 -34 -33 -5 -73 -14 -90 -20 -16 -7 -79 -26 -140 -43 -60 -18 -146 -46 -190 -64 -44 -18 -96 -36 -115 -40 -19 -3 -72 -24 -116 -45 -45 -22 -94 -42 -110 -46 -16 -4 -52 -22 -80 -40 -28 -19 -58 -34 -66 -34 -8 0 -46 -21 -84 -48 -38 -26 -86 -56 -107 -67 -21 -11 -65 -41 -97 -67 -32 -25 -68 -52 -81 -59 -38 -20 -217 -168 -304 -250 -44 -42 -111 -104 -149 -137 -38 -33 -87 -82 -108 -109 -22 -26 -68 -75 -101 -108 -34 -33 -94 -105 -133 -160 -71 -99 -164 -262 -164 -286 0 -7 -6 -20 -14 -28 -8 -9 -26 -38 -41 -66 -15 -27 -44 -75 -65 -105 -42 -63 -100 -181 -124 -257 -10 -28 -25 -62 -35 -75 -10 -13 -22 -39 -26 -58 -11 -53 -69 -259 -84 -295 -28 -70 -52 -161 -62 -230 -6 -44 -17 -107 -24 -140 -8 -33 -17 -100 -20 -150 -3 -49 -10 -123 -16 -163 -7 -51 -7 -88 0 -123 14 -65 14 -156 0 -165 -15 -9 -2 -231 18 -299 8 -27 18 -111 22 -185 5 -74 15 -153 23 -175 18 -48 49 -176 55 -225 5 -40 22 -100 33 -115 4 -5 13 -34 19 -62 6 -29 33 -99 61 -155 27 -56 50 -113 50 -126 0 -14 13 -48 29 -76 25 -43 55 -115 64 -150 1 -6 30 -59 64 -119 35 -59 63 -112 63 -117 0 -5 15 -26 33 -46 17 -20 41 -52 52 -70 61 -99 114 -163 242 -292 88 -88 145 -153 149 -170 4 -15 49 -70 104 -127 54 -55 111 -114 126 -131 31 -33 145 -114 161 -114 5 0 41 -29 79 -65 38 -36 75 -65 82 -65 12 0 179 -111 221 -146 34 -29 302 -163 371 -185 36 -11 81 -30 100 -43 19 -12 58 -28 85 -36 28 -7 63 -19 78 -27 16 -8 62 -23 103 -33 41 -11 114 -35 162 -54 156 -62 472 -115 507 -86 8 7 25 10 38 6 12 -3 83 -13 157 -22 188 -23 444 -26 543 -7 43 8 81 12 84 10 3 -3 23 1 44 8 22 8 54 14 72 14 18 0 59 4 92 9 33 5 63 8 67 5 8 -4 97 20 125 35 10 6 32 12 48 16 17 3 55 12 85 20 30 8 87 24 126 34 46 13 107 42 179 86 60 36 115 66 122 66 7 0 13 4 13 8 0 5 28 17 63 27 34 10 85 32 112 50 87 56 143 85 163 85 11 0 36 13 57 30 20 16 53 34 73 39 19 6 47 21 61 34 35 33 131 99 147 101 7 1 21 9 31 17 10 9 25 18 33 21 18 7 118 87 163 132 17 17 51 45 75 61 24 15 53 42 64 59 12 17 39 49 59 71 122 129 156 167 261 297 97 119 153 198 183 258 15 30 48 86 73 124 50 78 142 249 142 265 0 6 15 30 33 54 32 42 39 57 93 192 16 39 32 73 37 76 5 3 13 24 18 45 6 21 15 57 20 78 5 22 13 44 16 50 4 5 8 22 9 36 2 14 10 48 18 75 38 123 46 155 46 172 0 10 7 31 15 47 15 28 19 55 35 236 26 297 31 522 16 745 -4 72 -10 155 -11 185 -6 90 -16 162 -30 210 -55 190 -65 228 -65 253 0 26 -8 46 -65 172 -25 54 -43 111 -43 135 -1 21 -27 92 -57 150 -13 26 -22 50 -19 53 6 6 -22 65 -42 88 -16 18 -57 90 -80 139 -9 19 -24 51 -34 70 -11 19 -31 60 -47 90 -43 85 -161 279 -207 340 -23 30 -50 73 -59 95 -19 44 -83 114 -249 273 -60 57 -108 108 -108 113 0 6 -4 8 -8 5 -9 -6 -72 44 -174 138 -140 129 -197 173 -255 196 -13 5 -55 31 -94 57 -39 26 -78 53 -87 58 -9 6 -28 17 -42 26 -14 8 -41 22 -60 29 -19 7 -73 31 -119 53 -83 39 -100 45 -131 46 -9 1 -39 16 -68 35 -29 19 -69 37 -88 40 -19 4 -49 20 -67 35 -24 22 -71 39 -197 74 -91 26 -204 53 -252 61 -48 9 -118 23 -155 32 -38 9 -77 17 -88 18 -11 1 -24 4 -30 8 -10 6 -97 19 -220 34 -51 6 -253 12 -258 8z m-417 -335 c58 -6 128 -12 155 -14 28 -2 61 -8 75 -13 26 -10 75 -18 170 -27 30 -3 70 -15 90 -27 72 -43 85 -43 185 3 11 5 56 11 100 14 44 2 116 11 160 20 130 27 416 16 556 -20 31 -8 70 -15 86 -15 16 0 33 -4 39 -8 5 -4 41 -18 79 -30 39 -12 99 -31 135 -42 36 -12 112 -36 170 -54 58 -18 134 -48 169 -67 35 -19 80 -42 99 -52 19 -10 41 -24 48 -30 7 -7 63 -48 124 -91 61 -44 135 -102 164 -130 108 -106 246 -260 246 -276 0 -8 6 -24 14 -35 15 -22 48 -80 78 -137 11 -21 17 -42 14 -47 -3 -5 -2 -11 4 -13 5 -1 21 -46 35 -98 19 -73 25 -117 25 -190 -1 -52 -1 -121 -1 -152 l1 -56 54 -34 c54 -33 220 -180 308 -273 130 -136 202 -309 214 -510 10 -184 5 -333 -12 -391 -10 -32 -18 -68 -17 -79 1 -11 -10 -55 -24 -98 l-25 -78 26 -39 c14 -22 26 -42 26 -46 0 -4 15 -32 34 -63 38 -64 53 -160 37 -246 -21 -112 -52 -234 -76 -299 -22 -60 -36 -93 -88 -206 -31 -67 -96 -162 -227 -327 -36 -45 -78 -99 -93 -120 -16 -21 -64 -76 -107 -123 -43 -47 -97 -105 -119 -130 -41 -45 -41 -45 -61 -25 -18 19 -19 24 -6 77 12 54 109 216 139 235 7 5 26 30 42 58 15 27 39 60 53 74 13 13 44 64 69 112 24 49 61 115 82 146 40 60 100 202 122 288 6 28 17 56 22 63 16 20 15 218 -1 234 -11 11 -17 8 -34 -15 -24 -33 -127 -106 -188 -134 -135 -61 -255 -24 -328 101 -33 56 -35 66 -36 152 -1 89 0 95 39 169 76 148 162 210 282 207 34 -1 81 -8 105 -16 46 -16 58 -14 58 12 0 9 13 60 29 112 37 124 45 193 31 293 -25 175 -72 292 -149 375 -23 24 -41 47 -41 52 0 22 -152 130 -183 130 -5 0 -6 -21 -2 -47 12 -84 6 -337 -10 -415 -8 -40 -24 -118 -35 -173 -33 -171 -41 -197 -89 -290 -25 -49 -49 -100 -52 -112 -14 -46 -139 -220 -195 -273 -33 -31 -78 -76 -100 -100 -69 -74 -162 -160 -173 -160 -6 0 -11 -4 -11 -9 0 -10 -124 -104 -195 -147 -27 -17 -73 -39 -100 -49 -28 -11 -66 -28 -85 -39 -19 -10 -51 -23 -70 -27 -19 -4 -60 -14 -90 -23 -99 -27 -177 -34 -270 -23 -30 3 -104 11 -165 16 -155 15 -194 21 -200 32 -4 5 -10 7 -15 4 -5 -3 -18 -1 -28 4 -10 5 -59 15 -108 21 -49 6 -109 17 -134 24 -82 24 -151 38 -157 32 -3 -3 -1 -18 5 -33 6 -15 13 -40 16 -54 6 -29 28 -39 91 -39 22 0 58 -5 80 -10 22 -6 63 -13 92 -15 171 -15 335 -44 380 -66 25 -13 36 -64 17 -80 -7 -6 -14 -20 -16 -32 -3 -19 -12 -23 -58 -29 -73 -9 -184 -1 -295 22 -49 10 -139 22 -200 25 -60 4 -117 9 -126 11 -29 8 -31 -27 -5 -80 13 -28 34 -73 46 -101 12 -27 43 -88 70 -135 26 -47 51 -101 54 -121 4 -21 13 -42 21 -49 27 -23 -20 -80 -66 -80 -23 0 -34 8 -55 43 -15 23 -39 56 -54 73 -35 41 -170 277 -170 298 0 18 -40 22 -56 6 -6 -6 -33 -13 -60 -17 -27 -3 -50 -6 -52 -8 -1 -1 14 -13 34 -28 20 -14 44 -43 54 -65 18 -39 17 -41 -2 -72 -10 -18 -17 -39 -14 -46 3 -8 1 -14 -4 -14 -5 0 -15 -11 -22 -24 -17 -33 -111 -148 -175 -215 -29 -31 -53 -59 -53 -63 0 -4 -28 -28 -62 -55 -35 -26 -69 -54 -77 -61 -19 -18 -187 -98 -226 -107 -49 -11 -109 -13 -161 -5 -82 13 -262 -19 -366 -65 -169 -74 -360 -85 -481 -27 -67 32 -86 45 -198 137 -102 83 -371 331 -389 359 -19 29 -74 76 -89 76 -18 0 -83 45 -112 76 -50 55 -79 108 -79 144 0 24 -8 42 -24 57 -27 26 -40 78 -30 120 13 54 65 138 101 163 78 54 89 61 125 76 21 10 36 23 36 33 0 9 5 32 12 51 39 110 39 108 23 122 -20 16 -32 49 -48 133 -9 47 -10 74 -3 82 13 16 2 33 -23 33 -40 0 -311 156 -323 185 -7 20 1 57 18 73 12 12 21 13 43 4 38 -14 113 -26 113 -17 0 4 -22 31 -49 59 -94 97 -111 120 -106 145 7 38 19 45 56 32 39 -13 46 -9 25 16 -54 65 -76 98 -76 115 0 14 5 18 15 14 10 -3 15 1 15 12 1 14 5 12 23 -9 13 -14 38 -31 56 -37 33 -12 33 -12 17 11 -18 25 -43 76 -61 124 -11 29 -10 34 10 53 14 13 25 17 29 11 8 -12 65 -41 81 -41 7 0 48 -16 91 -36 88 -40 156 -65 162 -59 2 2 -1 12 -7 22 -5 11 -12 37 -15 59 -8 62 -50 185 -78 229 -14 22 -72 97 -129 167 -123 150 -150 209 -115 253 22 27 132 82 206 104 94 28 115 39 113 58 -2 10 2 58 8 107 8 67 8 90 -1 96 -12 7 -24 102 -23 175 1 110 14 284 23 314 5 19 8 37 6 40 -8 13 15 105 36 148 16 32 27 43 40 40 14 -4 18 4 23 42 4 25 13 84 21 130 8 46 14 100 14 120 1 47 26 151 40 165 10 10 223 15 395 9 28 -1 70 -1 95 -1 78 2 297 -14 365 -27 17 -4 84 -8 150 -10 66 -2 143 -7 170 -11 28 -4 61 -8 75 -10 14 -1 65 -7 114 -14 49 -6 90 -10 91 -8 2 2 5 12 7 23 2 17 -3 20 -37 23 -22 1 -87 12 -144 23 -112 23 -119 23 -233 34 -100 9 -186 43 -216 86 -20 28 -22 41 -17 81 9 63 37 119 76 152 51 43 128 78 199 89 95 15 297 23 355 15 28 -4 97 -13 155 -19z m2620 -5129 c0 -5 -4 -10 -10 -10 -5 0 -10 5 -10 10 0 6 5 10 10 10 6 0 10 -4 10 -10z m-1450 -660 c0 -5 -4 -10 -10 -10 -5 0 -10 5 -10 10 0 6 5 10 10 10 6 0 10 -4 10 -10z"/>
 <path d="M5338 7590 c-74 -4 -90 -9 -112 -29 -39 -36 -36 -83 7 -109 17 -11 46 -23 62 -27 45 -9 101 -25 185 -51 98 -31 164 -45 226 -48 27 -2 61 -10 75 -18 13 -8 44 -21 69 -29 71 -22 80 -39 74 -139 -7 -100 -7 -465 0 -498 3 -13 8 -63 11 -110 10 -146 51 -368 75 -397 4 -5 22 -37 40 -70 17 -33 40 -67 51 -77 10 -9 19 -20 19 -25 0 -30 215 -183 257 -183 10 0 30 -6 44 -14 88 -46 378 -33 453 20 11 8 27 14 36 14 23 0 154 138 188 200 32 57 104 239 128 325 22 76 29 133 29 220 0 69 -5 90 -34 155 -34 77 -58 112 -143 212 -38 44 -70 68 -150 110 -55 29 -135 71 -177 93 -80 43 -266 151 -291 170 -8 7 -55 26 -105 44 -113 41 -217 82 -230 92 -5 4 -55 19 -110 33 -55 14 -125 33 -155 41 -30 9 -90 23 -133 31 -43 8 -108 24 -144 35 -91 29 -144 35 -245 29z"/>
 <path d="M4660 7390 c0 -6 6 -13 13 -15 22 -7 121 -16 167 -15 88 2 130 -9 143 -38 6 -15 18 -32 25 -37 10 -8 14 -38 14 -100 1 -173 -2 -260 -11 -309 -5 -27 -7 -56 -4 -63 11 -29 28 -4 35 53 4 32 10 79 13 104 5 39 9 216 5 230 -1 3 -3 19 -5 35 -3 17 -10 47 -18 69 -11 32 -20 41 -53 51 -45 14 -183 34 -232 34 -18 0 -47 3 -63 6 -18 4 -29 3 -29 -5z"/>
 <path d="M3966 7313 c-4 -9 -9 -39 -12 -67 -3 -28 -9 -58 -14 -66 -13 -25 -22 -168 -11 -174 10 -6 -3 -60 -20 -81 -4 -5 -10 -39 -14 -75 -3 -35 -9 -69 -12 -74 -4 -5 -8 -84 -10 -175 -1 -92 -9 -195 -17 -231 -7 -36 -12 -69 -10 -75 9 -22 -19 -275 -32 -297 -8 -12 17 -51 26 -42 12 14 43 254 36 292 -3 20 -1 54 4 76 6 23 12 70 14 106 4 72 9 104 26 200 6 36 13 91 15 122 1 31 7 78 13 105 6 26 13 84 16 128 7 91 10 112 24 175 15 68 14 170 -2 170 -8 0 -17 -7 -20 -17z"/>
 <path d="M4800 6910 c0 -7 6 -26 14 -43 8 -18 19 -53 26 -80 7 -26 17 -50 21 -53 5 -3 9 -9 9 -13 0 -16 -53 -61 -71 -61 -11 0 -66 24 -124 54 -58 30 -105 51 -105 47 0 -4 22 -27 50 -51 27 -25 50 -51 50 -57 0 -7 5 -13 11 -13 18 0 77 -70 74 -88 -2 -14 -15 -17 -88 -17 -47 0 -88 -3 -92 -7 -6 -6 97 -78 113 -78 4 0 38 -20 75 -44 37 -24 67 -41 68 -38 0 4 4 -6 9 -21 7 -24 2 -38 -40 -99 -41 -58 -48 -74 -39 -90 7 -13 16 -17 27 -13 39 15 165 44 237 54 87 13 134 4 201 -35 22 -13 45 -24 51 -24 9 0 93 142 142 237 10 20 7 25 -36 55 -26 18 -80 53 -120 78 -40 25 -94 59 -120 75 -26 17 -57 36 -71 43 -13 8 -32 27 -42 44 -10 17 -43 56 -72 87 -30 31 -64 70 -77 88 -25 37 -81 80 -81 63z"/>
 <path d="M2971 6901 c-9 -6 -17 -39 -22 -93 -5 -45 -11 -96 -13 -113 -3 -16 -8 -68 -11 -115 -12 -170 -5 -196 49 -186 17 3 49 8 71 12 22 3 45 9 50 14 6 4 38 15 73 26 34 10 61 23 59 28 -2 6 -44 18 -94 26 -110 19 -186 61 -173 96 7 19 19 22 102 28 129 10 188 17 188 25 0 11 -65 31 -122 38 -74 8 -112 28 -104 56 3 12 6 31 6 42 0 14 7 20 23 21 45 3 147 26 147 34 0 5 -21 12 -47 15 -60 8 -112 24 -138 41 -23 16 -25 17 -44 5z"/>
 <path d="M5588 6439 c-15 -8 -6 -18 63 -65 44 -31 86 -53 92 -51 8 3 11 24 9 61 l-4 57 -51 -2 c-29 -1 -61 1 -72 4 -11 3 -28 2 -37 -4z"/>
 <path d="M5526 6283 c-8 -16 -27 -50 -41 -78 -14 -27 -30 -57 -37 -67 -14 -19 -10 -22 141 -136 51 -39 111 -87 133 -107 22 -21 45 -34 53 -31 12 4 14 -2 10 -32 -3 -20 -9 -38 -15 -40 -5 -2 -10 -11 -10 -20 0 -18 -16 -51 -90 -185 -34 -63 -46 -78 -61 -74 -14 4 -19 0 -19 -13 0 -26 -85 -189 -122 -234 -63 -77 -168 -102 -288 -68 -68 19 -86 29 -124 71 -42 46 -52 66 -67 132 -12 56 -13 56 -41 45 -22 -8 -40 -6 -83 9 -70 23 -124 86 -156 182 -20 62 -21 68 -5 93 21 37 21 70 -1 71 -87 3 -432 38 -488 50 -27 6 -60 12 -72 15 -43 8 -23 -14 27 -32 28 -10 50 -21 50 -25 0 -4 10 -11 23 -15 12 -3 29 -12 37 -19 8 -8 46 -25 84 -39 38 -15 76 -32 84 -39 8 -6 25 -16 37 -22 44 -19 179 -142 215 -195 14 -19 35 -46 47 -60 13 -14 23 -29 23 -33 0 -5 11 -18 25 -29 14 -11 24 -25 23 -31 -3 -13 34 -71 63 -100 10 -9 23 -35 29 -56 6 -22 16 -38 23 -37 80 16 236 28 251 19 15 -9 96 -8 99 1 4 13 67 -22 67 -38 0 -19 -30 -43 -86 -70 l-48 -23 31 -17 c18 -9 46 -16 63 -16 35 0 71 -16 83 -36 4 -8 15 -14 22 -14 31 0 15 -37 -22 -53 -21 -8 -57 -23 -80 -33 -42 -17 -56 -34 -30 -34 7 0 27 -13 45 -29 17 -16 41 -32 52 -36 11 -3 20 -11 20 -16 0 -5 7 -9 15 -9 8 0 21 -13 29 -29 18 -33 6 -51 -34 -52 -37 -1 -95 -24 -94 -37 1 -7 2 -18 3 -26 0 -8 11 -16 24 -20 12 -3 40 -21 61 -41 36 -33 38 -36 23 -57 -15 -24 -25 -25 -164 -27 -53 -1 -70 -14 -34 -26 10 -3 31 -17 45 -30 15 -14 34 -25 43 -25 8 0 43 -13 77 -30 68 -33 136 -48 416 -90 30 -4 70 -12 87 -18 60 -19 377 2 408 28 6 4 37 16 70 25 33 10 85 30 115 46 30 16 58 29 62 29 4 0 46 29 93 65 46 36 87 65 91 65 8 0 136 138 154 166 8 13 20 24 27 24 7 0 13 7 13 16 0 9 14 34 32 56 17 22 42 56 55 75 23 33 23 36 6 49 -10 7 -21 14 -25 14 -10 0 -26 -32 -32 -66 -3 -19 -25 -47 -62 -80 -61 -56 -85 -64 -188 -64 -119 0 -174 35 -234 148 -27 52 -33 77 -37 147 -8 138 40 244 131 286 24 12 42 24 40 28 -10 15 120 -3 152 -21 40 -22 48 -19 56 27 9 48 73 112 121 121 24 4 50 1 79 -10 54 -21 162 -117 170 -153 4 -14 13 -35 21 -46 13 -19 14 -19 21 9 4 16 14 43 22 59 32 62 38 172 32 658 0 20 -4 37 -9 37 -5 0 -16 -17 -25 -37 -15 -36 -31 -63 -49 -87 -4 -6 -30 -42 -57 -81 -28 -38 -53 -74 -58 -80 -4 -5 -19 -25 -32 -43 -36 -49 -221 -161 -299 -181 -20 -6 -83 -13 -141 -16 -83 -5 -124 -2 -193 13 -63 14 -90 16 -92 8 -16 -54 -40 -107 -59 -131 l-22 -28 -37 18 c-49 23 -76 57 -69 90 2 14 8 28 13 31 5 3 9 14 9 26 0 11 8 22 20 25 41 11 26 25 -87 82 -110 56 -162 108 -212 214 -23 47 -41 92 -41 99 -1 7 -14 51 -31 98 -17 47 -34 105 -39 130 -12 66 -18 77 -52 91 -16 7 -35 17 -41 24 -12 11 -135 85 -142 85 -2 0 -11 -12 -19 -27z m560 -962 c57 -15 153 -89 199 -152 66 -90 54 -204 -32 -291 -16 -17 -15 -19 4 -40 28 -32 32 -46 39 -157 7 -104 4 -115 -61 -232 -24 -44 -96 -94 -160 -112 -67 -20 -196 -37 -228 -32 -12 3 -38 6 -58 9 -55 6 -170 70 -205 113 -51 63 -62 85 -75 151 -15 70 -4 149 32 232 26 60 159 170 206 170 10 0 8 11 -11 43 -30 51 -41 112 -27 150 16 42 70 104 100 115 14 6 35 13 46 18 11 4 25 8 30 9 6 0 17 4 25 8 40 17 109 16 176 -2z"/>
 <path d="M5880 5270 c-37 -16 -90 -59 -90 -74 0 -7 -9 -23 -20 -36 -24 -27 -25 -51 -6 -88 26 -49 57 -69 131 -81 123 -21 159 -31 231 -69 63 -32 74 -35 89 -22 59 49 78 180 36 242 -33 47 -102 97 -158 114 -63 19 -182 27 -213 14z m124 -48 c3 -5 18 -9 34 -10 37 -1 112 -40 112 -58 0 -27 -31 -27 -103 1 -40 14 -84 31 -99 37 -42 16 -36 38 11 38 22 0 42 -4 45 -8z m-55 -81 c24 -18 24 -18 6 -58 -29 -66 -70 -78 -93 -28 -16 34 -4 85 22 95 31 13 38 12 65 -9z m220 -70 c7 -13 7 -32 -2 -62 -11 -36 -17 -45 -39 -47 -21 -3 -30 3 -42 27 -21 40 -20 57 4 81 25 25 66 26 79 1z"/>
 <path d="M5754 4906 c-40 -15 -102 -57 -109 -75 -3 -8 4 -24 16 -37 19 -21 31 -56 44 -138 7 -47 -33 -104 -92 -133 l-32 -15 33 -35 33 -36 23 23 c51 51 168 78 219 50 25 -13 81 -87 81 -107 0 -17 2 -17 50 4 27 12 38 23 35 33 -13 42 -7 99 14 143 28 57 59 83 111 92 34 6 40 11 40 31 0 29 -54 103 -97 134 -18 12 -49 28 -70 35 -52 18 -56 -3 -9 -49 32 -30 36 -40 36 -85 0 -28 -4 -59 -9 -69 -5 -9 -12 -24 -15 -33 -2 -9 -21 -30 -42 -45 -71 -55 -179 -22 -222 68 -18 36 -20 52 -13 98 9 67 24 96 53 106 22 7 53 32 47 38 -12 11 -99 12 -125 2z"/>
 <path d="M5061 6110 c-19 -4 -39 -6 -46 -4 -6 3 -22 1 -35 -4 -22 -8 -23 -13 -21 -73 1 -35 3 -65 5 -66 1 -1 21 3 45 8 38 8 50 7 90 -13 52 -26 72 -59 79 -131 4 -38 8 -47 20 -42 84 32 199 31 269 -4 23 -12 54 -37 69 -56 l26 -35 29 61 c16 33 29 63 29 65 0 7 -145 101 -197 127 -28 15 -60 37 -71 51 -10 14 -32 28 -47 32 -16 4 -58 24 -94 45 -76 43 -103 50 -150 39z"/>
 <path d="M4969 5913 c-9 -2 -23 -29 -33 -64 -10 -33 -29 -75 -42 -95 -13 -19 -24 -42 -24 -50 0 -24 -30 -75 -40 -69 -15 10 -11 46 10 90 29 59 26 73 -12 70 -46 -3 -63 -34 -63 -114 1 -138 79 -209 197 -178 21 6 30 16 38 47 6 24 38 73 75 120 68 83 76 109 56 180 -14 50 -94 82 -162 63z m96 -124 c8 -33 -18 -58 -43 -42 -25 15 -25 36 -1 62 23 25 34 20 44 -20z m-101 -155 c19 -7 21 -34 3 -57 -19 -27 -48 -1 -40 36 6 28 11 31 37 21z"/>
 <path d="M3370 5860 c-6 -10 -10 -24 -10 -31 0 -7 -6 -20 -13 -28 -8 -9 -20 -37 -27 -63 -7 -27 -16 -48 -21 -48 -4 0 -14 -19 -20 -42 -6 -24 -21 -52 -33 -63 -12 -11 -23 -24 -26 -30 -3 -5 -8 -9 -12 -7 -5 1 -8 -4 -8 -10 0 -7 -12 -21 -28 -30 -15 -10 -45 -31 -67 -47 -22 -16 -54 -32 -72 -36 -50 -9 -62 -45 -41 -115 23 -78 47 -272 35 -287 -5 -8 -34 -13 -71 -14 -54 -1 -58 -2 -36 -12 78 -36 97 -79 55 -121 -25 -25 -26 -28 -11 -45 36 -40 8 -91 -50 -91 -19 0 -34 -2 -34 -5 0 -14 34 -55 46 -55 18 0 28 -19 16 -33 -6 -7 -10 -16 -9 -22 1 -5 -8 -11 -20 -13 -29 -4 -45 -26 -41 -54 3 -20 8 -23 52 -23 33 0 51 5 56 15 4 8 20 40 34 70 14 31 35 63 45 72 10 9 23 22 27 29 15 23 86 73 139 99 71 35 201 33 273 -4 72 -36 104 -67 136 -129 l28 -56 91 0 c51 0 122 -2 160 -3 66 -3 67 -2 81 27 40 83 168 169 270 181 92 11 179 -30 285 -137 25 -24 41 -56 58 -109 13 -41 23 -83 23 -92 0 -11 11 -20 28 -24 15 -4 32 -9 37 -13 6 -3 18 -7 28 -8 11 -2 28 -10 40 -18 12 -8 26 -15 32 -15 5 1 -2 8 -17 16 -16 8 -28 20 -28 26 0 7 -9 22 -21 34 -29 30 -18 54 36 83 24 13 42 27 39 32 -3 5 -23 12 -44 15 -41 7 -94 46 -88 65 3 10 74 53 102 62 6 2 0 16 -11 31 -26 32 -19 52 28 79 36 20 36 32 2 54 -16 10 -31 21 -34 26 -3 5 -24 11 -45 14 -52 7 -76 25 -80 63 -3 25 1 32 22 40 29 11 31 5 -45 118 -31 46 -65 98 -76 115 -11 18 -31 41 -45 52 -14 11 -61 54 -105 97 -44 42 -82 75 -84 72 -8 -8 -1 -147 9 -174 1 -3 2 -8 1 -12 -2 -17 34 -118 56 -155 14 -24 22 -43 19 -43 -8 0 7 -19 47 -62 23 -25 36 -58 23 -58 -26 0 -104 52 -152 102 -71 74 -81 90 -117 183 -36 95 -48 154 -52 253 l-3 84 -64 33 c-36 18 -80 36 -99 40 -19 3 -74 22 -124 40 -49 19 -119 41 -155 50 -36 9 -88 25 -116 35 -28 10 -69 21 -91 25 -22 3 -54 10 -71 15 -27 7 -34 5 -42 -10z"/>
 <path d="M5265 5756 c-62 -19 -119 -60 -173 -125 -43 -51 -50 -66 -56 -117 -11 -103 12 -192 63 -238 20 -18 21 -18 46 12 19 23 37 32 75 37 60 8 90 -7 110 -54 14 -36 23 -38 48 -13 10 9 27 22 38 28 24 14 30 40 13 61 -23 27 -36 80 -32 125 4 50 35 87 96 114 23 10 44 19 46 21 2 1 -2 16 -9 32 -12 30 -12 30 -43 15 -46 -24 -106 -13 -138 26 -15 17 -30 44 -35 59 -9 28 -10 28 -49 17z m86 -115 c20 -24 39 -82 39 -118 0 -12 -19 -46 -43 -75 -34 -42 -52 -55 -84 -62 -51 -10 -107 13 -135 58 -42 68 5 195 80 213 64 16 123 9 143 -16z"/>
 <path d="M6945 5342 c-39 -21 -74 -63 -81 -100 -5 -23 0 -36 23 -63 16 -19 34 -45 40 -59 25 -56 41 -97 54 -135 16 -49 46 -85 70 -85 18 0 99 111 99 135 0 5 -16 33 -36 60 -79 111 -112 203 -82 233 10 10 10 15 -2 22 -21 14 -50 11 -85 -8z m25 -123 c15 -28 4 -71 -17 -67 -27 5 -38 33 -25 62 14 31 28 33 42 5z m99 -133 c15 -18 4 -63 -17 -71 -26 -10 -50 32 -43 78 2 13 48 8 60 -7z"/>
 <path d="M7050 5315 c0 -8 4 -23 9 -33 5 -9 18 -37 29 -62 25 -57 88 -126 96 -105 6 16 -19 97 -42 135 -39 64 -92 101 -92 65z"/>
 <path d="M6588 5186 c-16 -11 -14 -17 22 -60 44 -53 46 -63 26 -121 -15 -42 -70 -84 -113 -85 -25 0 -39 -15 -23 -25 5 -3 10 -17 10 -29 0 -13 8 -33 18 -45 15 -19 21 -21 50 -10 66 23 122 -3 172 -79 l15 -23 55 28 55 28 -45 5 c-58 7 -80 20 -115 66 -34 44 -35 85 -4 145 13 26 28 41 47 45 15 3 33 7 39 10 7 2 33 -5 58 -16 36 -15 47 -26 51 -50 8 -36 24 -40 24 -6 0 23 -34 110 -52 133 -7 9 -19 6 -47 -13 -29 -19 -45 -23 -72 -18 -46 9 -96 48 -117 91 -20 42 -30 48 -54 29z"/>
 <path d="M7743 4690 c-35 -21 -53 -48 -53 -79 0 -33 37 -31 93 5 46 30 62 63 39 82 -22 17 -42 15 -79 -8z"/>
 <path d="M3727 4363 c-50 -4 -59 -7 -67 -28 -5 -12 -14 -26 -19 -30 -6 -3 -11 -13 -11 -21 0 -23 -50 -85 -77 -95 -46 -17 -20 -26 100 -34 165 -11 195 -12 247 -15 47 -2 72 -6 235 -41 115 -24 282 -72 340 -99 70 -31 93 -33 100 -8 4 13 18 34 30 48 24 26 88 130 83 135 -10 9 -98 44 -124 49 -26 6 -38 2 -65 -21 -54 -45 -91 -61 -165 -74 -77 -13 -74 -12 -127 -4 -59 8 -178 111 -226 192 -31 54 -55 58 -254 46z"/>
 <path d="M4932 4298 c-7 -7 -12 -19 -12 -28 0 -8 -6 -24 -14 -35 -11 -16 -46 -131 -46 -151 0 -2 6 -4 13 -4 18 0 51 37 75 86 12 23 33 56 48 73 23 28 25 34 13 45 -21 20 -64 27 -77 14z"/>
 <path d="M2969 4293 c-11 -2 -19 -19 -22 -46 -4 -23 -9 -57 -13 -75 l-7 -33 94 2 c131 3 189 10 189 20 0 5 -19 18 -42 29 -24 11 -65 40 -93 65 -47 42 -67 49 -106 38z"/>
 <path d="M5075 4230 c-10 -11 -13 -20 -8 -20 13 0 38 29 31 35 -3 3 -13 -4 -23 -15z"/>
 <path d="M5125 4160 l-39 -40 29 1 c42 1 78 13 82 25 2 6 -4 21 -14 33 l-18 22 -40 -41z"/>
 <path d="M5001 4136 c-8 -9 -11 -19 -7 -23 9 -9 29 13 24 27 -2 8 -8 7 -17 -4z"/>
 <path d="M5198 4053 c-22 -5 -23 -26 -4 -42 12 -10 17 -8 26 9 13 25 4 39 -22 33z"/>
 <path d="M4795 4030 c-3 -5 -3 -15 1 -21 3 -6 15 -45 25 -87 11 -42 23 -80 28 -85 8 -8 37 -10 126 -7 l40 2 -102 104 c-56 57 -104 104 -107 104 -2 0 -8 -4 -11 -10z"/>
 <path d="M5108 3987 c18 -18 32 -38 32 -45 0 -17 27 -15 33 2 6 16 -57 76 -81 76 -11 0 -7 -9 16 -33z"/>
 <path d="M4968 4002 c-29 -6 -21 -25 35 -86 50 -56 53 -58 80 -45 25 11 37 29 19 29 -5 0 -33 24 -63 53 -33 32 -61 51 -71 49z"/>
 <path d="M4726 3923 c-13 -26 -12 -29 17 -50 17 -13 32 -21 34 -20 4 4 -27 97 -33 97 -2 0 -10 -12 -18 -27z"/>
 <path d="M3975 3853 c-16 -2 -75 -13 -130 -24 -55 -12 -109 -22 -120 -24 -22 -3 -86 -18 -150 -34 -22 -5 -74 -12 -115 -15 -41 -3 -109 -10 -150 -15 -99 -13 -257 -14 -339 -1 -233 36 -311 44 -311 31 0 -5 17 -15 38 -22 20 -6 42 -15 48 -20 5 -4 38 -11 73 -13 34 -3 66 -8 69 -10 18 -11 534 -2 553 10 7 4 26 8 43 10 17 2 42 6 56 10 14 3 36 8 50 9 61 8 89 14 150 29 36 9 80 21 98 27 29 9 85 15 229 23 26 1 75 -1 108 -5 33 -4 88 -10 122 -12 34 -3 66 -7 70 -10 4 -3 37 -8 73 -11 36 -4 87 -12 113 -17 26 -6 51 -9 54 -6 3 3 -8 9 -23 12 -16 3 -42 12 -57 20 -16 8 -44 15 -63 15 -19 0 -66 7 -104 16 -38 8 -89 13 -112 11 -39 -4 -70 -1 -203 15 -22 3 -53 4 -70 1z"/>
 </g>

</svg>